<svg version="1.2" xmlns="http://www.w3.org/2000/svg" viewBox="0 0 1840 1044" width="1840" height="1044">
	<title>vecteezy_bicycle-shop-logo-design-vector-image-bicycle-logo-concept_23783419-ai</title>
	<style>
		.s0 { fill: #000000 } 
		.s1 { fill: #acd9b2 } 
	</style>
	<g id="_Artboards_">
	</g>
	<g id="Background">
	</g>
	<g id="Layer 1">
		<g id="&lt;Group&gt;">
			<g id="&lt;Group&gt;">
				<path id="&lt;Path&gt;" class="s0" d="m1182.8 173.3c-15.2 0-27.6 12.3-27.6 27.5 0 15.2 12.4 27.6 27.6 27.6h32.2z"/>
				<path id="&lt;Path&gt;" class="s0" d="m1489.6 359c-9.2 0-17.9-1.9-25.8-5.3-10.2-4.4-22.1-1.9-30 6-13.9 13.8-9.2 37.2 8.8 44.9 15.2 6.4 32 9.8 49.6 9.5 64.5-1.4 116.8-54.2 117.7-118.7 1-67.3-53.3-122.1-120.3-122.1h-242.5l32.3 55.1h209.1c35.8 0 65.8 28.4 66.3 64.2 0.7 36.6-28.8 66.4-65.2 66.4z"/>
				<path id="&lt;Path&gt;" class="s0" d="m1182.8 173.3l32.2 55.1h64.4l-32.3-55.1z"/>
				<path id="&lt;Path&gt;" class="s0" d="m1543.1 451.5c-37.7 0-73.8 7.1-107 20l28.8 49.1c24.5-8.4 50.8-13 78.2-13 132.5 0 239.9 107.4 239.9 239.9 0 132.5-107.4 240-239.9 240-132.5 0-239.9-107.5-239.9-240 0-76.4 35.7-144.4 91.3-188.4l-28.6-48.7c-72.1 53.9-118.8 140.1-118.8 237.1 0 163.5 132.5 296 296 296 163.5 0 296-132.5 296-296 0-163.5-132.5-296-296-296z"/>
				<path id="&lt;Path&gt;" class="s0" d="m1536.4 777c7.7 13.2 24.7 17.7 38 10 13.2-7.7 17.7-24.7 10-38l-305-520.6h-64.4z"/>
				<path id="&lt;Path&gt;" class="s0" d="m1146.7 747.5c0 40.8-33.1 73.9-73.9 73.9v-147.7c40.8 0 73.9 33 73.9 73.8z"/>
				<path id="&lt;Path&gt;" class="s0" d="m1339.4 420l-6.1 10.3-178.4 300c-4.3-20.7-16.3-38.7-32.9-50.7l169.8-285.5c4.9-8.3 1.5-15.7-0.1-18.4-1.7-2.8-6.7-9.2-16.7-9.2h-202.2v-52.5h202.2c26.7 0 50.6 13.2 64 35.3 13.5 22.1 13.6 48.5 0.4 70.7z"/>
				<path id="&lt;Path&gt;" class="s0" d="m1072.8 1043.5h-42.8v-1021.6c0-11.9 9.6-21.4 21.4-21.4 11.9 0 21.4 9.5 21.4 21.4z"/>
			</g>
			<g id="&lt;Group&gt;">
				<g id="&lt;Group&gt;">
					<path id="&lt;Compound Path&gt;" fill-rule="evenodd" class="s0" d="m192 328h123.2q30.9 0 47.4 15.3 16.4 15.2 16.4 37.7 0 18.9-11.7 32.5-7.9 9-23 14.2 23 5.5 33.8 19 10.8 13.4 10.8 33.8 0 16.5-7.7 29.8-7.7 13.2-21 20.9-8.3 4.8-25 7-22.3 2.9-29.5 2.9h-113.7zm66.4 83.5h28.6q15.5 0 21.5-5.3 6-5.3 6-15.3 0-9.3-6-14.5-6-5.3-21-5.3h-29.1zm0 83.7h33.6q17 0 24-6 6.9-6 6.9-16.2 0-9.4-6.9-15.2-6.9-5.7-24.2-5.7h-33.4z"/>
					<path id="&lt;Compound Path&gt;" class="s0" d="m426 328h66v213.1h-66z"/>
					<path id="&lt;Compound Path&gt;" class="s0" d="m539.5 328h65.8v80.5l69-80.5h87.6l-77.8 80.4 81.2 132.7h-81l-45-87.7-34 35.7v52h-65.8z"/>
					<path id="&lt;Compound Path&gt;" class="s0" d="m787 328h176.4v45.5h-110.4v33.9h102.4v43.4h-102.4v42h113.6v48.3h-179.6z"/>
				</g>
				<g id="&lt;Group&gt;">
					<path id="&lt;Compound Path&gt;" class="s1" d="m0 747.6l40.8-4q3.7 20.5 14.9 30.2 11.3 9.6 30.4 9.6 20.2 0 30.5-8.6 10.3-8.5 10.3-20 0-7.4-4.3-12.5-4.4-5.2-15.1-9-7.4-2.6-33.6-9.1-33.7-8.3-47.3-20.5-19.1-17.1-19.1-41.8 0-15.8 9-29.7 9-13.8 25.9-21 16.9-7.2 40.9-7.2 39 0 58.8 17.1 19.7 17.2 20.7 45.8l-41.9 1.8q-2.7-16-11.5-23-8.9-7-26.6-7-18.2 0-28.6 7.5-6.6 4.8-6.6 12.9 0 7.3 6.2 12.6 7.9 6.6 38.5 13.9 30.6 7.2 45.3 14.9 14.6 7.7 22.9 21.1 8.3 13.4 8.3 33.1 0 17.8-9.9 33.4-9.9 15.6-28.1 23.1-18.1 7.6-45.1 7.6-39.4 0-60.5-18.2-21.1-18.2-25.2-53z"/>
					<path id="&lt;Compound Path&gt;" class="s1" d="m250.8 815.1v-172.4h-61.6v-35.2h164.9v35.2h-61.4v172.4z"/>
					<path id="&lt;Compound Path&gt;" fill-rule="evenodd" class="s1" d="m367.4 712.6q0-31.7 9.5-53.2 7.1-15.9 19.4-28.5 12.2-12.6 26.8-18.7 19.4-8.2 44.7-8.2 45.9 0 73.5 28.5 27.5 28.4 27.5 79.1 0 50.3-27.3 78.7-27.4 28.4-73.1 28.4-46.3 0-73.6-28.3-27.4-28.2-27.4-77.8zm43.2-1.4q0 35.2 16.3 53.4 16.3 18.2 41.4 18.2 25 0 41.1-18 16.1-18.1 16.1-54.2 0-35.7-15.7-53.2-15.6-17.6-41.5-17.6-25.9 0-41.8 17.8-15.9 17.8-15.9 53.6z"/>
					<path id="&lt;Compound Path&gt;" fill-rule="evenodd" class="s1" d="m601.6 815.1v-207.6h88.3q33.2 0 48.3 5.6 15.1 5.6 24.2 19.9 9 14.3 9 32.7 0 23.4-13.7 38.6-13.7 15.2-41.1 19.2 13.6 7.9 22.5 17.4 8.8 9.5 23.8 33.7l25.4 40.5h-50.1l-30.4-45.1q-16.1-24.3-22-30.6-6-6.3-12.6-8.6-6.7-2.3-21.1-2.3h-8.5v86.6zm41.9-119.8h31q30.1 0 37.6-2.5 7.6-2.6 11.8-8.8 4.3-6.2 4.3-15.6-0.1-10.4-5.6-16.9-5.6-6.4-15.8-8.1-5.1-0.7-30.6-0.7h-32.7z"/>
					<path id="&lt;Compound Path&gt;" class="s1" d="m810.9 815.1v-207.6h153.9v35.2h-112v46h104.3v35h-104.3v56.4h116v35z"/>
				</g>
			</g>
		</g>
		<g id="Road">
		</g>
		<g id="Ribbon 6">
		</g>
	</g>
</svg>